<svg xmlns="http://www.w3.org/2000/svg" viewBox="0 0 16 16" width="512" height="512" shape-rendering="crispEdges">
  <rect x="0" y="0" width="16" height="1" fill="#3B58C4"/>
  <rect x="0" y="1" width="2" height="1" fill="#3B58C4"/>
  <rect x="2" y="1" width="6" height="1" fill="#EFE9D5"/>
  <rect x="8" y="1" width="8" height="1" fill="#3B58C4"/>
  <rect x="0" y="2" width="16" height="1" fill="#3B58C4"/>
  <rect x="0" y="3" width="16" height="1" fill="#10122A"/>
  <rect x="0" y="4" width="16" height="1" fill="#10122A"/>
  <rect x="0" y="5" width="16" height="1" fill="#10122A"/>
  <rect x="0" y="6" width="2" height="1" fill="#10122A"/>
  <rect x="2" y="6" width="11" height="1" fill="#A7AECC"/>
  <rect x="13" y="6" width="3" height="1" fill="#10122A"/>
  <rect x="0" y="7" width="16" height="1" fill="#10122A"/>
  <rect x="0" y="8" width="2" height="1" fill="#10122A"/>
  <rect x="2" y="8" width="8" height="1" fill="#A7AECC"/>
  <rect x="10" y="8" width="6" height="1" fill="#10122A"/>
  <rect x="0" y="9" width="16" height="1" fill="#10122A"/>
  <rect x="0" y="10" width="2" height="1" fill="#10122A"/>
  <rect x="2" y="10" width="10" height="1" fill="#A7AECC"/>
  <rect x="12" y="10" width="4" height="1" fill="#10122A"/>
  <rect x="0" y="11" width="16" height="1" fill="#10122A"/>
  <rect x="0" y="12" width="16" height="1" fill="#10122A"/>
  <rect x="0" y="13" width="16" height="1" fill="#10122A"/>
  <rect x="0" y="14" width="16" height="1" fill="#10122A"/>
  <rect x="0" y="15" width="3" height="1" fill="#191D3A"/>
  <rect x="3" y="15" width="2" height="1" fill="#2E3464"/>
  <rect x="5" y="15" width="3" height="1" fill="#3B58C4"/>
  <rect x="8" y="15" width="3" height="1" fill="#D460A2"/>
  <rect x="11" y="15" width="3" height="1" fill="#E08A48"/>
  <rect x="14" y="15" width="2" height="1" fill="#E7BC5D"/>
</svg>
